<?xml version="1.0" encoding="UTF-8"?>
<svg width="128px" height="128px" viewBox="0 0 24 24" version="1.1" xmlns="http://www.w3.org/2000/svg" xmlns:xlink="http://www.w3.org/1999/xlink">
    <title>WhatsApp Link</title>
    <g id="Page-1" stroke="none" stroke-width="1" fill="none" fill-rule="evenodd">
        <g id="WhatsApp-Link" transform="translate(-12.000000, -12.000000)" fill="#25D366">
            <g id="Group" transform="translate(12.000000, 12.000000)">
                <path d="M12,0 C5.373,0 0,5.373 0,12 C0,14.165 0.6,16.186 1.628,17.9 L0,24 L6.35,22.477C8.009,23.421 9.933,24 12,24 C18.627,24 24,18.627 24,12 C24,5.373 18.627,0 12,0 Z M12,22.8 C10.133,22.8 8.373,22.409 6.798,21.711 L6.4,21.514 L2.7,22.6 L3.826,19.086 L3.608,18.67C2.719,17.13 2.2,15.352 2.2,13.4 C2.2,7.365 6.665,2.5 12,2.5 C17.335,2.5 21.8,7.365 21.8,13.4 C21.8,19.435 17.335,24.3 12,24.3 Z" id="Shape"></path>
                <path d="M17.5,14.5 L16.5,14.5 C16.225,14.5 16,14.275 16,14 L16,10 C16,9.725 16.225,9.5 16.5,9.5 L17.5,9.5 C17.775,9.5 18,9.725 18,10 L18,14 C18,14.275 17.775,14.5 17.5,14.5 Z" id="Rectangle"></path>
                <path d="M13.5,14.5 L12.5,14.5 C12.225,14.5 12,14.275 12,14 L12,10 C12,9.725 12.225,9.5 12.5,9.5 L13.5,9.5 C13.775,9.5 14,9.725 14,10 L14,14 C14,14.275 13.775,14.5 13.5,14.5 Z" id="Rectangle"></path>
                <path d="M9.5,14.5 L8.5,14.5 C8.225,14.5 8,14.275 8,14 L8,10 C8,9.725 8.225,9.5 8.5,9.5 L9.5,9.5 C9.775,9.5 10,9.725 10,10 L10,14 C10,14.275 9.775,14.5 9.5,14.5 Z" id="Rectangle"></path>
                <path d="M6,10 L5,10 C4.448,10 4,10.448 4,11 L4,13 C4,13.552 4.448,14 5,14 L6,14 C6.552,14 7,13.552 7,13 L7,11 C7,10.448 6.552,10 6,10 Z" id="Rectangle"></path>
                <path d="M19,10 L18,10 C17.448,10 17,10.448 17,11 L17,13 C17,13.552 17.448,14 18,14 L19,14 C19.552,14 20,13.552 20,13 L20,11 C20,10.448 19.552,10 19,10 Z" id="Rectangle"></path>
            </g>
        </g>
    </g>
</svg>
